<svg xmlns="http://www.w3.org/2000/svg" height="90" width="90" version="1.1"  viewBox="0 0 90 90">
<defs>
<linearGradient id="k" x1="68.9" gradientUnits="userSpaceOnUse" y1="90" gradientTransform="translate(-96.4 .0255)" x2="226" y2="42.3">
<stop stop-color="#d0e6ee" stop-opacity=".11" offset="0"/>
<stop stop-color="#9dd4ec" offset=".089"/>
<stop stop-color="#3fc1e8" offset="1"/>
</linearGradient>
<linearGradient id="j" y2=".583" gradientUnits="userSpaceOnUse" y1="90" gradientTransform="translate(-96.4 .0255)" x2="157" x1="158">
<stop stop-color="#f1d12d" offset="0"/>
<stop stop-color="#e93d00" offset="1"/>
</linearGradient>
<linearGradient id="i" x1="14" gradientUnits="userSpaceOnUse" y1="3" gradientTransform="translate(-96.4 .0255)" x2="230" y2="2.8">
<stop stop-color="#e93d00" stop-opacity="0" offset="0"/>
<stop stop-color="#e93d00" offset=".05"/>
<stop stop-color="#e93d00" offset="1"/>
</linearGradient>
<linearGradient id="h" x1="18" gradientUnits="userSpaceOnUse" y1="9.9" gradientTransform="translate(-96.4 .0255)" x2="230" y2="10">
<stop stop-color="#ea5800" stop-opacity="0" offset="0"/>
<stop stop-color="#ea5800" offset=".056"/>
<stop stop-color="#ea5800" offset="1"/>
</linearGradient>
<linearGradient id="g" x1="22" gradientUnits="userSpaceOnUse" y1="17" gradientTransform="translate(-96.4 .0255)" x2="230" y2="17">
<stop stop-color="#e95700" stop-opacity="0" offset="0"/>
<stop stop-color="#e95700" offset=".058"/>
<stop stop-color="#e95700" offset="1"/>
</linearGradient>
<linearGradient id="f" x1="28" gradientUnits="userSpaceOnUse" y1="24" gradientTransform="translate(-96.4 .0255)" x2="230" y2="24">
<stop stop-color="#ed7606" stop-opacity="0" offset="0"/>
<stop stop-color="#ed7606" offset=".061"/>
<stop stop-color="#ed7606" offset="1"/>
</linearGradient>
<linearGradient id="e" x1="31" gradientUnits="userSpaceOnUse" y1="30" gradientTransform="translate(-96.4 .0255)" x2="230" y2="30">
<stop stop-color="#ed7612" stop-opacity="0" offset="0"/>
<stop stop-color="#ed7612" offset=".064"/>
<stop stop-color="#ed7612" offset="1"/>
</linearGradient>
<linearGradient id="d" x1="36" gradientUnits="userSpaceOnUse" y1="38" gradientTransform="translate(-96.4 .0255)" x2="230" y2="38">
<stop stop-color="#ed7506" stop-opacity="0" offset="0"/>
<stop stop-color="#ed7506" stop-opacity=".5" offset=".067"/>
<stop stop-color="#ed7506" offset="1"/>
</linearGradient>
<linearGradient id="c" x1="43" gradientUnits="userSpaceOnUse" y1="48" gradientTransform="translate(-96.4 .0255)" x2="230" y2="48">
<stop stop-color="#ee9604" stop-opacity="0" offset="0"/>
<stop stop-color="#ee9604" offset=".072"/>
<stop stop-color="#ee9604" offset="1"/>
</linearGradient>
<linearGradient id="b" x1="49" gradientUnits="userSpaceOnUse" y1="57" gradientTransform="translate(-96.4 .0255)" x2="230" y2="57">
<stop stop-color="#ee9707" stop-opacity="0" offset="0"/>
<stop stop-color="#ee9707" offset=".075"/>
<stop stop-color="#ee9707" offset="1"/>
</linearGradient>
<linearGradient id="a" x1="58" gradientUnits="userSpaceOnUse" y1="71" gradientTransform="translate(-96.4 .0255)" x2="230" y2="71">
<stop stop-color="#f5cb00" stop-opacity="0" offset="0"/>
<stop stop-color="#f5cb00" stop-opacity=".5" offset=".082"/>
<stop stop-color="#f5cb00" offset="1"/>
</linearGradient>
</defs>
<rect height="5.9" width="231" y=".0255" x="-101" fill="url(#i)"/>
<rect height="3.98" width="231" y="8.33" x="-101" fill="url(#h)"/>
<rect height="4.1" width="231" y="14.7" x="-101" fill="url(#g)"/>
<rect height="3.6" width="231" y="21.9" x="-102" fill="url(#f)"/>
<rect height="2.2" width="230" y="29.1" x="-101" fill="url(#e)"/>
<rect height="2.4" width="230" y="37" x="-101" fill="url(#d)"/>
<rect height="2.31" width="230" y="47.1" x="-101" fill="url(#c)"/>
<rect height="1.8" width="230" y="55.8" x="-101" fill="url(#b)"/>
<rect opacity=".960" height="1.7" width="230" y="70" x="-101" fill="url(#a)"/>
<circle cy="55" cx="63.6" r="52" fill="url(#j)"/>
<path fill="url(#k)" d="m-27.7 74.3 11 3.8 26-7.1 9.2-1.1 8-11 21 12 13-15 19-15 10 4.6 7.1-.063 13 13 10 .44 9.85-5.8v37.2h-157z"/>
</svg>
