<svg xmlns="http://www.w3.org/2000/svg" version="1.1"><symbol id="person" viewBox="0 0 8 16">
  <path d="M7 6H1c-0.55 0-1 0.45-1 1v5h2v3c0 0.55 0.45 1 1 1h2c0.55 0 1-0.45 1-1V12h2V7c0-0.55-0.45-1-1-1z m0 5h-1V9h-1v6H3V9h-1v2H1V7h6v4z m0-8C7 1.34 5.66 0 4 0S1 1.34 1 3s1.34 3 3 3 3-1.34 3-3zM4 5c-1.11 0-2-0.89-2-2S2.89 1 4 1s2 0.89 2 2-0.89 2-2 2z"/>
</symbol><symbol id="book" viewBox="0 0 16 16">
  <path d="M2 5h4v1H2v-1z m0 3h4v-1H2v1z m0 2h4v-1H2v1z m11-5H9v1h4v-1z m0 2H9v1h4v-1z m0 2H9v1h4v-1z m2-6v9c0 0.55-0.45 1-1 1H8.5l-1 1-1-1H1c-0.55 0-1-0.45-1-1V3c0-0.55 0.45-1 1-1h5.5l1 1 1-1h5.5c0.55 0 1 0.45 1 1z m-8 0.5l-0.5-0.5H1v9h6V3.5z m7-0.5H8.5l-0.5 0.5v8.5h6V3z"/>
</symbol><symbol id="mail-read" viewBox="0 0 14 16">
  <path d="M6 5H4v-1h2v1z m3 1H4v1h5v-1z m5-0.48v8.48c0 0.55-0.45 1-1 1H1c-0.55 0-1-0.45-1-1V5.52c0-0.33 0.16-0.63 0.42-0.81l1.58-1.13v-0.58c0-0.55 0.45-1 1-1h1.2L7 0l2.8 2h1.2c0.55 0 1 0.45 1 1v0.58l1.58 1.13c0.27 0.19 0.42 0.48 0.42 0.81zM3 7.5l4 2.5 4-2.5V3H3v4.5zM1 13.5l4.5-3L1 7.5v6z m11 0.5L7 11 2 14h10z m1-6.5L8.5 10.5l4.5 3V7.5z"/>
</symbol><symbol id="comment" viewBox="0 0 14 16">
  <path d="M13 2H1c-0.55 0-1 0.45-1 1v8c0 0.55 0.45 1 1 1h2v3.5l3.5-3.5h6.5c0.55 0 1-0.45 1-1V3c0-0.55-0.45-1-1-1z m0 9H6L4 13V11H1V3h12v8z"/>
</symbol><symbol id="mark-github" viewBox="0 0 16 16">
  <path d="M8 0C3.58 0 0 3.58 0 8c0 3.54 2.29 6.53 5.47 7.59 0.4 0.07 0.55-0.17 0.55-0.38 0-0.19-0.01-0.82-0.01-1.49-2.01 0.37-2.53-0.49-2.69-0.94-0.09-0.23-0.48-0.94-0.82-1.13-0.28-0.15-0.68-0.52-0.01-0.53 0.63-0.01 1.08 0.58 1.23 0.82 0.72 1.21 1.87 0.87 2.33 0.66 0.07-0.52 0.28-0.87 0.51-1.07-1.78-0.2-3.64-0.89-3.64-3.95 0-0.87 0.31-1.59 0.82-2.15-0.08-0.2-0.36-1.02 0.08-2.12 0 0 0.67-0.21 2.2 0.82 0.64-0.18 1.32-0.27 2-0.27 0.68 0 1.36 0.09 2 0.27 1.53-1.04 2.2-0.82 2.2-0.82 0.44 1.1 0.16 1.92 0.08 2.12 0.51 0.56 0.82 1.27 0.82 2.15 0 3.07-1.87 3.75-3.65 3.95 0.29 0.25 0.54 0.73 0.54 1.48 0 1.07-0.01 1.93-0.01 2.2 0 0.21 0.15 0.46 0.55 0.38C13.71 14.53 16 11.53 16 8 16 3.58 12.42 0 8 0z"/>
</symbol><symbol id="issue-opened" viewBox="0 0 14 16">
  <path d="M7 2.3c3.14 0 5.7 2.56 5.7 5.7S10.14 13.7 7 13.7 1.3 11.14 1.3 8s2.56-5.7 5.7-5.7m0-1.3C3.14 1 0 4.14 0 8s3.14 7 7 7 7-3.14 7-7S10.86 1 7 1z m1 3H6v5h2V4z m0 6H6v2h2V10z"/>
</symbol></svg>